<?xml version="1.0" encoding="utf-8"?>
<!-- Generator: Adobe Illustrator 22.0.1, SVG Export Plug-In . SVG Version: 6.00 Build 0)  -->
<svg version="1.1" id="Layer_1" xmlns="http://www.w3.org/2000/svg" xmlns:xlink="http://www.w3.org/1999/xlink" x="0px" y="0px"
	 viewBox="0 0 2500 723" style="enable-background:new 0 0 2500 723;" xml:space="preserve">
<style type="text/css">
	.st0{fill:#FFFFFF;}
</style>
<path class="st0" d="M621.4,530.4c-17,37.6-25.1,54.4-47,87.7c-30.5,46.5-73.5,104.3-126.8,104.8c-47.4,0.4-59.5-30.8-123.8-30.5
	c-64.2,0.3-77.7,31-125,30.6c-53.3-0.5-94-52.7-124.6-99.1C-11,494-20,341.6,32.6,260.6c37.4-57.5,96.4-91.2,151.9-91.2
	c56.5,0,92,31,138.7,31c45.3,0,72.9-31,138.2-31c49.3,0,101.6,26.9,138.9,73.3C478.2,309.5,498,483.8,621.4,530.4L621.4,530.4z"/>
<path class="st0" d="M411.8,117.4C435.6,86.9,453.6,44,447,0c-38.8,2.7-84.1,27.3-110.6,59.5c-24,29.2-43.8,72.4-36.1,114.5
	C342.7,175.3,386.4,150,411.8,117.4z"/>
<g>
	<path class="st0" d="M837.9,324c0,26.4-20.1,47.7-51.5,47.7c-30.1,0-50.2-21.3-49.5-47.7c-0.6-27.6,19.4-48.3,50.2-48.3
		C817.9,275.7,837.3,296.4,837.9,324z M739.5,716V409.3h95.3V716H739.5z M996,373.6H882.5v-80.3h324.9v80.3H1092V716h-96L996,373.6z
		 M1510.3,617.6c0,40.1,1.3,72.7,2.5,98.5H1430l-4.4-43.3h-1.9c-11.9,18.8-40.8,50.2-96,50.2c-62.1,0-107.9-38.9-107.9-133.6v-180
		h96v165c0,44.5,14.4,71.5,47.7,71.5c26.4,0,41.4-18.2,47.7-33.2c2.5-5.6,3.1-13.2,3.1-20.7V409.4h96L1510.3,617.6L1510.3,617.6
		L1510.3,617.6z M1586.8,507.1c0-38.3-1.3-70.9-2.5-97.8h82.8l4.4,42h1.9c12.5-19.4,43.9-48.9,94.7-48.9
		c62.7,0,109.7,41.4,109.7,131.7V716h-95.3v-170c0-39.5-13.8-66.5-48.3-66.5c-26.4,0-42,18.2-48.3,35.7c-2.5,6.3-3.8,15.1-3.8,23.8
		V716h-95.3L1586.8,507.1L1586.8,507.1L1586.8,507.1z M2027.7,593.1c3.1,39.5,42,58.3,86.6,58.3c32.6,0,59-4.4,84.7-12.5l12.6,64.6
		c-31.3,12.6-69.6,19.4-111,19.4c-104.1,0-163.7-60.8-163.7-156.8c0-77.8,48.3-163.7,154.9-163.7c99.1,0,136.7,77.1,136.7,153
		c0,16.3-1.9,30.7-3.1,37.6L2027.7,593.1L2027.7,593.1z M2140,527.8c0-23.2-10.1-62.1-53.9-62.1c-40.1,0-56.4,36.4-59,62.1H2140z
		 M2284.8,632.6c17.6,10.6,53.9,23.2,82.2,23.2c28.9,0,40.8-10.1,40.8-25.7s-9.4-23.2-45.2-35.1c-63.4-21.3-87.8-55.8-87.2-91.6
		c0-57.7,48.9-101,124.8-101c35.7,0,67.8,8.2,86.6,17.6l-16.9,65.9c-13.8-7.5-40.1-17.6-66.5-17.6c-23.2,0-36.4,9.4-36.4,25.1
		c0,14.4,11.9,22,49.5,35.1c58.3,20.1,82.8,49.6,83.4,94.7c0,57.1-45.2,99.7-133,99.7c-40.1,0-75.9-9.4-99.1-22L2284.8,632.6
		L2284.8,632.6z"/>
</g>
</svg>
