<?xml version="1.0" standalone="no"?>
<!DOCTYPE svg PUBLIC "-//W3C//DTD SVG 20010904//EN"
 "http://www.w3.org/TR/2001/REC-SVG-20010904/DTD/svg10.dtd">
<svg version="1.0" xmlns="http://www.w3.org/2000/svg"
 width="525.000000pt" height="525.000000pt" viewBox="0 0 525.000000 525.000000"
 preserveAspectRatio="xMidYMid meet">
<metadata>
Created by potrace 1.11, written by Peter Selinger 2001-2013
</metadata>
<g transform="translate(0.000000,525.000000) scale(0.100000,-0.100000)"
fill="#000000" stroke="none">
<path d="M2320 5234 c-392 -47 -773 -182 -1099 -389 -314 -199 -604 -487 -806
-800 -411 -638 -526 -1457 -304 -2179 l31 -103 36 8 c30 6 40 4 58 -15 26 -25
22 -37 -23 -60 -18 -9 -33 -22 -33 -29 0 -22 16 -38 33 -31 26 9 74 -25 81
-59 8 -40 8 -47 -4 -47 -5 0 -10 16 -10 35 0 19 -4 35 -9 35 -6 0 -8 -30 -6
-70 4 -56 12 -84 44 -147 51 -101 94 -168 85 -133 -9 38 151 -122 188 -188 17
-29 35 -51 40 -50 6 2 20 20 31 40 l21 36 -32 60 c-32 62 -36 69 -107 152 -78
93 -105 129 -105 139 0 5 -8 12 -19 16 -32 10 -91 111 -91 158 0 4 33 5 73 2
131 -11 137 -13 153 -50 8 -19 14 -45 14 -59 0 -14 5 -37 11 -53 10 -26 11
-27 21 -9 6 10 8 40 5 67 -7 56 1 61 45 24 16 -14 36 -25 43 -25 18 0 76 -72
108 -135 64 -127 96 -221 107 -316 10 -91 9 -100 -15 -178 -29 -91 -62 -154
-76 -145 -6 4 -6 10 0 17 17 22 26 111 23 239 -4 126 -4 128 -27 128 -29 0
-50 38 -99 185 -38 115 -56 154 -56 124 0 -22 19 -127 32 -178 10 -39 9 -45
-7 -57 -17 -13 -17 -16 -2 -56 20 -54 56 -191 62 -238 3 -19 10 -47 16 -62 6
-15 9 -34 6 -42 -4 -9 21 -40 65 -82 l70 -68 19 25 c21 27 69 124 69 139 0 6
11 33 24 60 21 44 24 61 20 133 -2 45 -9 104 -16 131 -18 80 -81 226 -114 264
-36 42 -71 89 -83 113 -22 44 -86 107 -116 115 -16 4 -48 21 -72 37 -35 25
-60 33 -140 43 -54 7 -119 11 -145 7 l-47 -5 3 47 c2 34 7 50 22 58 10 5 35
23 55 38 29 23 43 27 71 23 22 -4 37 -14 44 -27 12 -29 48 -33 71 -8 16 17 24
19 61 10 24 -5 48 -7 53 -3 6 3 30 -8 54 -25 24 -17 53 -31 65 -31 27 0 76
-25 120 -62 19 -16 46 -38 60 -49 80 -62 103 -87 154 -163 31 -46 56 -88 56
-95 0 -6 9 -30 20 -54 35 -76 51 -176 56 -342 3 -137 1 -171 -16 -237 -11 -43
-20 -90 -20 -106 0 -16 -8 -58 -19 -93 -10 -35 -23 -83 -28 -106 l-10 -43 86
-53 c82 -50 89 -52 144 -49 31 2 57 8 57 13 0 5 17 17 38 27 20 11 51 27 68
35 16 9 50 18 75 20 27 2 62 14 89 31 25 16 55 34 67 42 13 8 20 20 16 32 -3
13 10 30 43 58 26 21 95 86 154 144 139 138 265 223 351 236 21 4 48 17 60 30
12 13 28 24 34 24 13 0 107 48 115 59 3 3 17 14 33 24 15 10 27 24 27 33 0 9
-3 14 -7 12 -64 -31 -137 -48 -180 -41 -33 5 -48 -13 -16 -19 9 -2 -15 -14
-53 -27 -38 -13 -95 -39 -127 -57 -87 -50 -87 -46 -2 24 6 4 55 35 110 67 96
57 135 76 235 112 114 40 374 83 520 85 108 1 285 -8 298 -16 15 -9 -12 -62
-41 -77 -27 -15 -59 -1 -52 22 7 23 -11 25 -34 5 -9 -8 -40 -17 -70 -21 -43
-6 -52 -5 -49 6 3 8 16 13 32 11 25 -3 26 -1 16 18 -13 24 -37 21 -80 -10 -14
-9 -44 -20 -65 -23 -131 -18 -186 -23 -236 -23 -41 1 -55 -2 -52 -11 4 -9 -6
-13 -28 -14 -38 0 -95 -28 -158 -76 -67 -51 -24 -56 108 -12 47 15 89 20 188
20 70 0 135 4 143 9 23 12 175 16 243 7 54 -8 59 -7 64 12 6 22 27 28 38 11 9
-14 25 -13 30 3 42 121 46 128 73 125 22 -2 27 -8 24 -28 -1 -14 -11 -44 -22
-67 -11 -24 -20 -50 -20 -58 0 -16 6 -17 80 -20 25 -1 97 -13 161 -28 103 -23
169 -44 336 -109 l52 -20 41 32 c22 17 40 36 40 41 0 14 -90 56 -158 74 -34 8
-88 26 -119 39 -57 23 -76 28 -239 62 -101 20 -115 28 -94 49 14 14 32 12 175
-19 218 -46 323 -85 411 -152 81 -62 119 -71 112 -26 -3 23 0 28 17 28 37 -1
21 27 -44 80 -45 36 -84 57 -125 70 -34 9 -92 29 -131 44 -38 15 -104 33 -145
40 -119 20 -123 24 -54 48 32 11 77 27 99 35 22 8 66 18 98 22 41 5 60 13 68
26 9 19 10 19 37 -1 20 -15 45 -20 95 -22 37 -1 67 -6 67 -11 0 -5 12 -7 26
-4 21 4 25 1 21 -13 -4 -15 1 -17 34 -13 24 4 39 2 39 -5 0 -6 10 -12 22 -14
25 -4 37 -28 13 -28 -9 0 -13 -5 -10 -10 3 -6 15 -10 25 -10 14 0 18 5 13 18
-6 15 -4 15 15 -2 15 -13 20 -26 16 -42 -10 -37 15 -30 84 26 34 28 69 50 77
50 9 0 18 8 22 18 7 21 53 61 70 62 7 0 16 6 20 14 4 8 39 39 76 70 66 54 71
56 127 56 32 0 62 4 65 10 8 13 25 13 25 0 0 -5 -6 -10 -12 -10 -7 0 -39 -24
-71 -54 -32 -29 -70 -59 -84 -67 -14 -8 -42 -29 -62 -48 -20 -19 -94 -77 -166
-130 -113 -83 -131 -101 -139 -132 -5 -20 -6 -44 -2 -54 6 -17 24 -6 101 62
11 10 47 39 80 65 33 25 76 60 95 76 54 45 71 51 117 42 l43 -7 33 61 c34 61
137 288 137 301 0 3 -4 4 -8 1 -5 -3 -53 -7 -108 -11 -126 -7 -195 -15 -215
-26 -8 -4 -74 -10 -145 -12 -71 -3 -141 -10 -156 -16 -15 -6 -58 -13 -95 -16
-109 -10 -204 -25 -261 -42 -46 -14 -55 -14 -63 -2 -15 24 -11 33 39 90 26 29
58 71 71 91 l22 37 -20 18 c-14 11 -21 29 -21 52 0 28 8 42 46 78 26 24 55 43
65 43 28 0 49 11 49 26 0 11 19 14 83 14 74 1 80 2 63 15 -11 8 -29 15 -40 15
-12 1 6 12 39 26 40 17 87 27 140 31 44 3 87 11 95 18 20 16 107 45 136 45 13
0 25 4 29 9 10 18 119 43 162 38 26 -3 41 -1 40 6 -1 6 18 14 43 18 25 5 70
16 102 25 69 20 65 7 74 299 9 315 -26 575 -117 859 -134 421 -338 755 -649
1066 -311 311 -645 515 -1066 649 -335 108 -746 147 -1094 105z m465 -265 c24
-20 26 -26 21 -73 -13 -123 -15 -114 24 -141 88 -61 190 4 214 137 5 30 13 39
44 51 20 8 43 11 51 7 18 -9 47 -102 62 -198 10 -62 15 -73 35 -78 46 -12 59
-2 65 52 10 80 22 96 72 92 l42 -3 -1 -98 c-1 -53 -6 -103 -12 -110 -12 -16
-26 -84 -23 -119 1 -14 -2 -43 -7 -65 -6 -21 -13 -60 -17 -87 -6 -44 -13 -56
-73 -112 -40 -38 -79 -66 -97 -69 -16 -4 -52 -15 -80 -25 -157 -59 -380 -54
-580 12 -37 12 -66 27 -69 37 -14 48 -26 145 -20 164 3 12 3 19 -1 15 -9 -8
-37 48 -49 97 -11 45 -69 145 -115 197 -52 58 -56 100 -11 123 16 8 35 15 42
15 17 0 69 -54 126 -131 35 -46 51 -59 88 -69 60 -17 95 -5 106 35 4 17 6 83
4 147 -3 67 -1 120 5 123 5 4 9 17 9 30 0 28 40 50 111 64 4 0 19 -9 34 -20z
m-866 -763 c10 -12 8 -16 -11 -22 -34 -10 -180 -131 -203 -168 -32 -52 -79
-106 -91 -106 -16 0 -94 -103 -94 -124 0 -9 7 -19 15 -22 18 -7 19 -27 3 -54
-18 -29 -1 -36 22 -9 30 35 42 69 35 101 -4 18 -3 28 5 28 18 0 134 106 151
137 28 55 56 65 96 33 l26 -20 31 23 c61 46 148 87 162 77 23 -20 3 -45 -62
-80 -35 -19 -66 -42 -69 -51 -8 -23 -50 -60 -144 -123 -47 -31 -91 -54 -99
-51 -12 4 -13 -3 -8 -37 6 -41 5 -44 -31 -67 -69 -45 -135 -139 -105 -149 22
-7 12 -20 -31 -41 -29 -14 -51 -35 -66 -61 -12 -22 -29 -40 -37 -40 -8 0 -14
-7 -14 -15 0 -23 16 -18 34 10 9 14 47 40 84 57 37 17 69 36 71 42 9 23 80 85
102 90 13 2 50 9 81 16 72 14 93 4 108 -51 10 -35 9 -44 -6 -60 -21 -23 -34
-24 -34 -3 0 22 -41 15 -161 -28 -86 -31 -179 -88 -179 -109 0 -8 -57 -39 -72
-39 -4 0 -8 9 -8 20 0 11 -4 20 -10 20 -13 0 -30 -67 -30 -124 0 -37 -6 -57
-25 -82 -23 -31 -25 -38 -15 -73 6 -23 7 -58 3 -83 -4 -24 -6 -47 -4 -53 2 -5
4 -68 6 -140 1 -71 5 -138 9 -147 5 -11 1 -23 -12 -36 -10 -10 -22 -39 -25
-64 -3 -24 -15 -66 -27 -92 -24 -57 -25 -82 -4 -90 34 -13 44 -6 44 28 0 65
175 286 227 286 28 0 65 30 59 47 -4 10 12 31 44 60 34 31 49 51 45 62 -4 14
2 17 29 17 37 0 75 33 76 66 0 9 5 20 10 23 17 10 62 106 57 120 -3 7 12 37
34 66 58 81 67 101 72 155 18 180 19 184 43 190 19 5 24 13 24 36 0 40 39 105
71 118 15 6 41 27 60 46 l33 34 110 -6 c71 -4 116 -10 126 -19 12 -10 25 -11
60 -3 25 6 83 14 130 17 47 4 72 8 57 9 -18 1 -27 7 -25 15 3 7 36 15 89 20
46 4 91 10 99 14 8 4 22 7 30 8 8 0 35 7 60 14 98 29 370 12 425 -25 11 -8 32
-14 48 -14 41 0 91 -55 122 -136 14 -38 35 -85 45 -104 15 -28 17 -49 13 -105
-3 -38 -12 -82 -19 -97 -16 -31 -19 -88 -4 -88 6 0 10 -54 10 -141 0 -120 -2
-138 -14 -126 -19 18 -23 121 -7 175 11 39 10 48 -8 83 -17 32 -21 58 -21 138
0 111 -12 149 -60 198 -29 29 -95 53 -149 53 -10 0 -21 3 -25 7 -3 4 -37 8
-74 9 -64 1 -73 -2 -197 -62 -71 -35 -143 -73 -160 -84 -16 -11 -45 -20 -64
-20 -25 0 -32 -4 -28 -14 4 -10 -9 -23 -37 -39 -39 -22 -43 -22 -39 -6 7 25
-12 24 -44 -1 -19 -15 -35 -19 -57 -15 -26 5 -36 0 -65 -30 -19 -19 -38 -35
-44 -35 -5 0 -30 -17 -56 -38 -58 -47 -96 -72 -113 -72 -8 0 -36 -22 -63 -50
-47 -46 -106 -80 -141 -80 -17 0 -84 -62 -84 -78 0 -6 -13 -26 -30 -44 -16
-18 -30 -36 -30 -40 0 -13 105 -9 118 4 7 7 12 27 12 46 l0 35 40 -7 c32 -5
40 -3 40 9 0 9 8 18 18 22 9 3 27 18 38 32 12 14 32 25 45 26 13 0 47 13 74
27 46 24 125 51 150 53 6 0 12 6 15 13 9 21 387 182 428 182 13 0 36 7 51 15
53 27 254 54 306 41 13 -3 28 -19 35 -37 7 -17 24 -37 36 -46 13 -8 37 -43 53
-77 16 -34 36 -68 44 -75 23 -18 41 -110 33 -162 -9 -57 -10 -108 -4 -194 5
-65 -4 -130 -31 -220 -5 -16 -12 -45 -16 -64 -12 -57 17 -32 43 38 38 99 48
62 17 -60 -32 -123 -43 -142 -115 -204 -61 -52 -106 -77 -163 -93 -33 -9 -38
-9 -33 4 20 49 21 47 -15 39 -19 -4 -54 -18 -79 -31 -25 -13 -51 -24 -58 -24
-8 0 -41 15 -75 34 -61 33 -215 76 -275 76 -16 0 -35 6 -41 14 -6 7 -33 19
-59 26 -26 7 -94 28 -152 47 -58 19 -119 38 -136 43 -17 6 -54 10 -82 10 -42
0 -53 4 -62 21 -7 11 -26 27 -43 34 -41 17 -198 29 -216 17 -25 -17 -1 -32 52
-32 29 0 72 -6 97 -13 46 -13 140 -66 140 -79 0 -4 -19 -12 -42 -18 -72 -19
-72 -18 -57 -36 9 -11 21 -14 43 -9 122 28 217 22 312 -20 29 -13 66 -26 84
-30 20 -4 34 -15 37 -26 3 -12 14 -19 29 -19 12 0 25 -4 28 -8 3 -5 29 -7 58
-5 100 8 347 -72 316 -102 -5 -5 -75 19 -84 28 -4 4 -25 7 -46 7 -21 0 -38 5
-38 10 0 6 -28 10 -65 10 -37 0 -65 -4 -65 -10 0 -5 -14 -10 -31 -10 -23 0
-30 -4 -27 -17 2 -11 22 -20 63 -29 33 -7 80 -19 105 -28 25 -8 70 -17 100
-20 30 -2 75 -12 100 -21 25 -9 70 -17 100 -19 30 -2 85 -7 123 -11 76 -8 83
-1 37 38 -18 15 -48 28 -78 32 -95 13 -86 22 66 70 57 18 86 9 80 -24 -3 -19
9 -41 24 -41 6 0 8 10 4 25 -9 35 8 31 32 -7 17 -26 18 -35 9 -47 -14 -16 -11
-46 8 -75 7 -12 18 -46 25 -76 7 -30 17 -63 22 -73 5 -11 9 -101 9 -200 -1
-100 3 -197 9 -216 l9 -33 -37 5 c-176 26 -464 31 -547 9 -40 -10 -75 -4 -75
14 0 8 -10 14 -25 14 -31 0 -32 -13 -4 -32 20 -13 16 -15 -62 -27 -87 -14
-283 -75 -309 -96 -8 -7 -40 -24 -70 -39 -68 -34 -253 -157 -300 -200 -36 -33
-123 -98 -175 -130 -46 -29 -171 -138 -256 -223 l-46 -46 -70 55 c-93 75 -124
107 -152 159 -22 41 -24 56 -26 231 -3 181 -10 231 -45 313 -5 11 -11 29 -14
40 -20 78 -60 153 -121 226 -17 21 -39 62 -49 94 -19 55 -59 101 -78 89 -5 -4
-7 -17 -4 -30 8 -32 -11 -31 -47 2 -30 28 -120 74 -182 94 -22 7 -54 19 -72
27 -17 7 -41 13 -53 13 -17 0 -20 4 -15 18 13 29 16 76 6 92 -13 20 -21 10
-32 -41 -11 -48 -22 -59 -50 -52 -25 7 -24 28 7 126 40 126 101 243 135 258
16 6 33 17 39 24 11 14 60 1 124 -32 17 -9 53 -16 81 -17 l50 -1 -2 -48 c-1
-26 -6 -54 -13 -62 -18 -22 -4 -141 21 -176 27 -38 59 -45 125 -27 l54 15 60
-64 c33 -35 60 -73 60 -84 0 -11 10 -34 22 -52 13 -18 24 -34 25 -36 1 -2 9 2
17 8 12 10 23 7 58 -17 54 -37 160 -147 181 -187 8 -17 34 -50 56 -74 45 -48
52 -40 25 28 -13 33 -14 49 -5 92 6 29 9 54 7 57 -11 10 -36 -9 -36 -28 0 -27
-17 -25 -32 4 -20 38 -111 131 -168 172 -50 36 -51 38 -45 77 5 27 3 42 -5 47
-24 15 15 77 55 90 19 6 70 42 112 78 43 37 102 84 131 105 54 40 62 54 38 63
-14 5 -199 -114 -252 -162 -31 -28 -95 -46 -176 -50 -40 -1 -86 -11 -114 -23
-65 -29 -89 -27 -117 12 -18 23 -26 49 -30 97 -3 36 -8 73 -12 83 -4 9 -3 17
3 17 6 0 12 -10 14 -22 2 -13 11 -24 22 -26 17 -4 18 1 13 38 -3 24 -11 46
-18 51 -8 5 -13 33 -13 81 -1 57 -4 73 -16 73 -8 0 -20 -17 -27 -40 l-12 -40
2 40 c2 31 7 42 26 51 30 15 41 32 41 67 0 20 5 27 19 27 11 0 23 5 26 10 3 6
1 10 -5 10 -6 0 -22 7 -36 16 -23 15 -23 18 -10 39 8 13 22 49 30 81 52 214
67 273 76 304 5 19 12 66 14 105 3 38 10 71 15 73 14 5 14 117 1 199 -9 53 -8
67 10 108 24 56 24 55 5 55 -20 0 -19 18 6 69 11 23 24 81 30 129 9 81 39 159
68 177 5 3 35 44 67 91 76 112 110 140 185 149 72 8 103 0 96 -26 -3 -10 -4
-19 -2 -19 10 0 95 63 95 70 0 21 102 26 119 6z m2572 -618 c7 -18 31 -52 53
-76 40 -44 46 -72 31 -144 -8 -36 11 -71 35 -65 24 6 37 -9 42 -48 2 -21 -1
-30 -12 -31 -8 -1 -20 -2 -27 -3 -21 -2 -34 -39 -38 -109 -3 -37 -12 -92 -20
-122 -21 -76 -19 -91 8 -55 55 74 121 212 136 285 9 44 19 61 46 83 38 31 66
34 89 11 23 -22 20 -35 -14 -74 -16 -19 -29 -40 -30 -47 -1 -33 -37 -115 -76
-175 -24 -37 -44 -72 -44 -77 0 -6 -11 -21 -25 -35 -14 -14 -28 -39 -31 -56
-4 -17 -11 -33 -15 -36 -15 -9 -10 -42 6 -46 22 -5 -21 -68 -46 -68 -11 0 -33
-10 -49 -22 -24 -17 -32 -19 -44 -9 -15 13 -36 7 -36 -10 0 -5 7 -9 15 -9 24
0 18 -16 -20 -51 -41 -39 -44 -60 -12 -74 27 -12 36 -65 13 -85 -9 -7 -16 -18
-16 -25 0 -6 -9 -20 -20 -30 -15 -13 -19 -26 -15 -45 5 -25 -14 -56 -48 -77
-7 -4 -28 -27 -46 -51 -18 -23 -48 -49 -66 -56 -41 -18 -87 -100 -104 -188 -8
-37 -26 -83 -45 -113 -17 -27 -42 -81 -55 -120 -32 -95 -45 -112 -89 -125 -41
-11 -90 -46 -79 -56 4 -4 13 -1 22 6 10 8 15 9 15 1 0 -6 -12 -18 -27 -28 -16
-9 -40 -28 -55 -41 l-26 -24 -23 21 c-17 16 -20 24 -11 33 8 8 15 8 26 -1 19
-16 29 1 17 32 -5 14 -7 28 -4 31 9 8 -44 26 -70 23 -16 -1 -26 7 -38 31 -10
18 -24 41 -33 51 -9 10 -16 22 -16 27 0 5 -10 27 -21 49 -12 22 -30 81 -41
130 -34 164 -37 175 -63 219 -14 23 -25 49 -25 56 0 8 18 44 40 81 22 37 40
78 40 91 0 14 9 43 20 66 11 22 20 52 20 66 0 31 14 41 30 21 7 -9 20 -13 29
-10 13 4 28 -16 64 -89 26 -51 47 -98 47 -102 0 -5 10 -27 22 -49 29 -53 32
-111 7 -144 -23 -31 -36 -91 -21 -91 11 0 22 10 47 45 13 17 16 18 25 5 5 -8
10 -25 10 -37 0 -12 9 -30 19 -40 11 -10 23 -31 26 -46 4 -15 12 -26 19 -24
16 5 17 90 2 170 -11 57 -11 70 0 74 7 3 16 14 20 25 3 11 33 47 66 81 51 52
82 91 120 151 4 6 9 22 12 36 8 37 86 120 114 120 12 0 22 -5 22 -11 0 -5 4
-7 10 -4 5 3 18 1 28 -4 20 -11 62 -4 62 9 0 5 -19 14 -42 22 -42 13 -43 14
-40 53 3 29 -1 43 -16 54 -18 14 -20 24 -15 89 4 51 10 72 19 72 19 0 18 25
-2 41 -13 11 -15 24 -9 69 3 30 7 67 7 82 1 15 8 30 16 33 13 5 13 8 -1 23
-11 12 -13 22 -7 32 5 8 10 41 10 73 0 47 3 57 18 57 15 1 15 2 1 13 -9 7 -21
35 -28 63 -7 28 -19 63 -26 78 -11 20 -12 33 -5 46 6 10 10 34 10 52 0 18 7
41 15 51 13 18 15 18 44 -4 27 -20 31 -29 32 -73 1 -28 1 -54 0 -59 -1 -4 4
-28 10 -52 15 -60 41 -61 69 -3 25 52 25 59 -1 103 -20 33 -20 37 -5 60 20 30
20 36 2 29 -23 -9 -29 16 -10 37 27 30 59 24 75 -13z m-1001 -143 c10 -12 10
-15 -4 -15 -9 0 -16 7 -16 15 0 8 2 15 4 15 2 0 9 -7 16 -15z m1157 -277 c-3
-8 -6 -5 -6 6 -1 11 2 17 5 13 3 -3 4 -12 1 -19z m-1070 -470 c-3 -8 -6 -5 -6
6 -1 11 2 17 5 13 3 -3 4 -12 1 -19z m963 -85 c0 -12 -33 -43 -46 -43 -20 0
-27 19 -14 35 12 15 60 21 60 8z m-1140 -433 c0 -5 -5 -10 -11 -10 -5 0 -7 5
-4 10 3 6 8 10 11 10 2 0 4 -4 4 -10z m305 -650 c3 -5 1 -10 -4 -10 -6 0 -11
5 -11 10 0 6 2 10 4 10 3 0 8 -4 11 -10z m303 -38 c3 -16 -3 -23 -25 -27 -15
-3 -42 -10 -59 -15 -36 -12 -114 -13 -114 -2 1 14 161 73 185 68 6 -2 11 -12
13 -24z m-1930 -624 c-3 -29 -10 -36 -64 -63 -33 -16 -79 -43 -103 -58 -39
-26 -61 -28 -61 -7 0 18 107 89 127 84 13 -4 28 6 51 35 40 49 54 52 50 9z
m-694 -192 c20 -24 36 -49 36 -55 0 -6 11 -11 24 -11 14 0 37 -11 52 -23 l27
-24 -54 -30 c-81 -47 -89 -46 -120 12 -22 39 -28 64 -28 113 -1 76 12 80 63
18z m462 33 c4 -7 -9 -27 -30 -46 -20 -19 -36 -38 -36 -42 0 -4 -21 -22 -46
-40 -43 -30 -47 -31 -59 -14 -12 16 -7 25 53 86 65 65 101 83 118 56z m-527
-174 c14 -40 3 -65 -28 -65 -9 0 -22 -5 -29 -12 -16 -16 -15 3 2 24 7 10 17
14 21 10 4 -4 5 5 1 20 -6 27 1 58 13 58 4 0 13 -16 20 -35z m191 -59 c0 -3
-4 -8 -10 -11 -5 -3 -10 -1 -10 4 0 6 5 11 10 11 6 0 10 -2 10 -4z"/>
<path d="M2734 4628 c9 -45 15 -49 66 -36 51 12 65 22 56 37 -5 8 -13 8 -27 1
-15 -9 -26 -7 -48 10 -42 29 -55 26 -47 -12z"/>
<path d="M3250 4571 c0 -6 5 -13 10 -16 6 -3 10 1 10 9 0 9 -4 16 -10 16 -5 0
-10 -4 -10 -9z"/>
<path d="M2437 4553 c-10 -17 13 -53 33 -53 25 0 27 28 3 46 -21 15 -30 17
-36 7z"/>
<path d="M2745 4430 c-49 -13 -80 -27 -94 -44 -8 -9 -12 -18 -10 -21 9 -8 168
50 165 60 -4 13 -24 15 -61 5z"/>
<path d="M2475 4409 c-14 -22 25 -109 49 -109 6 0 18 5 26 10 13 8 13 11 -1
22 -9 7 -22 30 -29 51 -11 36 -32 48 -45 26z"/>
<path d="M3220 4406 c0 -9 8 -19 18 -22 9 -3 27 -11 40 -17 16 -8 25 -8 33 0
16 16 4 30 -28 35 -16 3 -36 9 -45 13 -13 5 -18 3 -18 -9z"/>
<path d="M2870 4376 c-19 -8 -45 -15 -58 -15 -48 -2 -252 -94 -252 -114 0 -68
230 -90 490 -47 120 19 138 25 157 48 13 15 23 34 23 42 -1 26 -90 74 -150 82
-130 17 -175 18 -210 4z"/>
<path d="M1396 3955 c-49 -49 -66 -82 -57 -107 5 -14 15 -28 23 -30 22 -9 78
4 78 17 0 7 3 21 7 30 5 14 2 16 -17 10 -32 -10 -41 10 -23 52 16 41 12 51
-11 28z"/>
<path d="M1486 3945 c-23 -36 -20 -42 9 -15 26 24 32 40 16 40 -5 0 -16 -11
-25 -25z"/>
<path d="M3417 3702 c-9 -2 -15 -8 -12 -13 8 -12 45 -12 45 0 0 13 -12 18 -33
13z"/>
<path d="M2688 3673 c7 -3 16 -2 19 1 4 3 -2 6 -13 5 -11 0 -14 -3 -6 -6z"/>
<path d="M1495 3630 c-16 -17 -35 -28 -43 -25 -7 2 -10 0 -7 -5 3 -6 19 -10
34 -10 21 0 31 8 44 35 20 43 10 45 -28 5z"/>
<path d="M2260 3637 c-37 -17 -61 -37 -93 -75 -21 -27 -27 -44 -27 -83 0 -41
4 -51 26 -66 19 -12 30 -14 43 -6 9 6 31 14 48 17 17 4 39 16 49 27 22 24 73
50 85 43 5 -3 18 0 29 6 19 10 21 17 15 64 -5 35 -3 56 4 60 25 16 7 22 -71
23 -46 1 -94 -4 -108 -10z"/>
<path d="M1358 3603 c12 -2 30 -2 40 0 9 3 -1 5 -23 4 -22 0 -30 -2 -17 -4z"/>
<path d="M1315 3359 c-4 -6 -5 -13 -2 -16 7 -7 27 6 27 18 0 12 -17 12 -25 -2z"/>
<path d="M2860 3250 c0 -12 64 -12 100 0 19 6 9 8 -37 9 -36 1 -63 -3 -63 -9z"/>
<path d="M3384 3205 c-13 -28 -7 -40 13 -24 14 12 18 49 6 49 -5 0 -13 -11
-19 -25z"/>
<path d="M3405 3089 c-10 -15 1 -23 20 -15 9 3 13 10 10 16 -8 13 -22 13 -30
-1z"/>
<path d="M2275 2990 c-3 -5 -1 -10 4 -10 6 0 11 5 11 10 0 6 -2 10 -4 10 -3 0
-8 -4 -11 -10z"/>
<path d="M1645 2651 c-7 -12 12 -24 25 -16 11 7 4 25 -10 25 -5 0 -11 -4 -15
-9z"/>
<path d="M3390 2600 c0 -5 5 -10 10 -10 6 0 10 5 10 10 0 6 -4 10 -10 10 -5 0
-10 -4 -10 -10z"/>
<path d="M3170 2410 c-19 -15 -22 -22 -13 -31 9 -9 18 -8 37 5 27 17 35 46 14
46 -7 0 -24 -9 -38 -20z"/>
<path d="M2720 2360 c0 -5 7 -10 15 -10 8 0 15 5 15 10 0 6 -7 10 -15 10 -8 0
-15 -4 -15 -10z"/>
<path d="M2900 2350 c-22 -6 -23 -8 -7 -15 9 -4 17 -13 17 -21 0 -21 28 -17
40 5 21 40 7 49 -50 31z"/>
<path d="M2830 2340 c-17 -11 -8 -23 14 -18 9 2 12 8 8 15 -5 8 -13 9 -22 3z"/>
<path d="M3065 2330 c-3 -5 -1 -10 4 -10 6 0 11 5 11 10 0 6 -2 10 -4 10 -3 0
-8 -4 -11 -10z"/>
<path d="M1390 2303 c-15 -20 -18 -29 -9 -32 13 -4 49 33 49 50 0 17 -19 9
-40 -18z"/>
<path d="M2616 2167 c-13 -9 -15 -16 -8 -21 16 -10 64 4 59 18 -6 17 -30 18
-51 3z"/>
<path d="M1737 2143 c-4 -3 -7 -11 -7 -17 0 -6 5 -5 12 2 6 6 9 14 7 17 -3 3
-9 2 -12 -2z"/>
<path d="M834 2066 c-6 -16 24 -86 36 -86 3 0 4 18 2 40 -5 45 -28 73 -38 46z"/>
<path d="M3401 1914 c0 -11 3 -14 6 -6 3 7 2 16 -1 19 -3 4 -6 -2 -5 -13z"/>
<path d="M1890 1694 c0 -8 5 -12 10 -9 6 4 8 11 5 16 -9 14 -15 11 -15 -7z"/>
<path d="M3225 1551 c-7 -12 12 -24 25 -16 11 7 4 25 -10 25 -5 0 -11 -4 -15
-9z"/>
<path d="M3240 1480 c-8 -5 -11 -12 -8 -16 10 -9 38 3 38 16 0 12 -10 13 -30
0z"/>
<path d="M3130 1430 c0 -5 7 -10 15 -10 8 0 15 5 15 10 0 6 -7 10 -15 10 -8 0
-15 -4 -15 -10z"/>
<path d="M2092 1141 c4 -13 18 -16 19 -4 0 4 -5 9 -11 12 -7 2 -11 -2 -8 -8z"/>
<path d="M1707 1024 c-4 -4 -7 -14 -7 -23 0 -11 3 -12 11 -4 6 6 10 16 7 23
-2 6 -7 8 -11 4z"/>
<path d="M1930 951 c0 -6 5 -13 10 -16 6 -3 10 1 10 9 0 9 -4 16 -10 16 -5 0
-10 -4 -10 -9z"/>
<path d="M1620 900 c0 -5 7 -10 15 -10 8 0 15 5 15 10 0 6 -7 10 -15 10 -8 0
-15 -4 -15 -10z"/>
<path d="M1660 800 c0 -5 5 -10 10 -10 6 0 10 5 10 10 0 6 -4 10 -10 10 -5 0
-10 -4 -10 -10z"/>
<path d="M4365 3284 c-15 -23 -15 -28 -3 -41 13 -12 17 -11 32 12 17 26 16 55
-3 55 -5 0 -16 -12 -26 -26z"/>
<path d="M4500 3120 c0 -5 12 -10 26 -10 14 0 23 4 19 10 -3 6 -15 10 -26 10
-10 0 -19 -4 -19 -10z"/>
<path d="M4485 3070 c-4 -6 -3 -16 3 -22 6 -6 12 -6 17 2 4 6 3 16 -3 22 -6 6
-12 6 -17 -2z"/>
<path d="M4461 2973 c-12 -31 -2 -84 17 -91 15 -5 16 23 1 49 -8 16 -7 23 7
33 9 7 14 18 10 24 -12 19 -23 14 -35 -15z"/>
<path d="M4320 2855 c0 -8 7 -15 15 -15 8 0 15 7 15 15 0 8 -7 15 -15 15 -8 0
-15 -7 -15 -15z"/>
<path d="M4313 2748 c2 -7 10 -13 17 -13 7 0 15 6 18 13 2 7 -5 12 -18 12 -13
0 -20 -5 -17 -12z"/>
<path d="M4272 2410 c-22 -24 -46 -80 -34 -80 4 0 20 18 35 40 33 46 32 75 -1
40z"/>
<path d="M3672 2304 c4 -20 34 -41 44 -31 8 8 -24 47 -38 47 -5 0 -8 -7 -6
-16z"/>
<path d="M3998 2127 c-21 -10 -24 -16 -17 -30 13 -22 32 -22 52 1 34 38 17 51
-35 29z"/>
<path d="M3630 1960 c0 -5 5 -10 10 -10 6 0 10 5 10 10 0 6 -4 10 -10 10 -5 0
-10 -4 -10 -10z"/>
<path d="M3713 1959 c-25 -9 -30 -25 -11 -31 18 -6 68 3 68 13 0 16 -35 27
-57 18z"/>
<path d="M3792 1869 c4 -30 35 -49 48 -30 12 21 -6 51 -31 51 -15 0 -20 -5
-17 -21z"/>
<path d="M3805 1589 c-4 -6 -5 -12 -2 -15 7 -7 37 7 37 17 0 13 -27 11 -35 -2z"/>
<path d="M5055 2200 c-4 -6 8 -10 29 -10 20 0 36 5 36 10 0 6 -13 10 -29 10
-17 0 -33 -4 -36 -10z"/>
<path d="M5211 2194 c0 -11 3 -14 6 -6 3 7 2 16 -1 19 -3 4 -6 -2 -5 -13z"/>
<path d="M5201 2144 c0 -11 3 -14 6 -6 3 7 2 16 -1 19 -3 4 -6 -2 -5 -13z"/>
<path d="M4690 2100 c0 -5 7 -10 15 -10 8 0 15 5 15 10 0 6 -7 10 -15 10 -8 0
-15 -4 -15 -10z"/>
<path d="M4730 2101 c0 -6 4 -11 9 -11 5 0 12 -9 16 -19 4 -14 19 -22 51 -27
24 -3 44 -10 44 -15 0 -5 -6 -9 -13 -9 -7 0 -18 -9 -25 -20 -16 -26 -44 -26
-60 0 -10 17 -21 20 -68 17 -55 -3 -75 -15 -87 -51 -3 -7 -12 -4 -25 7 -16 15
-24 16 -41 7 -31 -16 -26 -33 8 -25 16 3 32 2 35 -4 3 -5 -12 -12 -34 -16 -25
-4 -40 -12 -40 -21 0 -8 -7 -14 -15 -14 -9 0 -12 6 -9 15 7 17 -11 21 -21 5
-3 -5 -22 -10 -41 -10 -39 0 -49 -26 -11 -33 20 -3 19 -4 -8 -11 -43 -12 -98
-47 -88 -57 5 -5 30 -2 57 6 27 8 63 15 81 15 17 0 71 9 121 21 49 11 107 24
129 29 22 5 52 13 68 19 15 6 53 10 85 10 31 0 73 5 92 11 56 18 210 23 211 8
1 -22 18 31 35 104 9 38 13 72 10 75 -3 4 -6 -1 -6 -10 0 -24 -23 -27 -47 -5
-17 16 -25 18 -42 8 -12 -6 -31 -8 -43 -4 -13 4 -24 1 -29 -7 -6 -10 -13 -11
-26 -3 -22 13 -50 7 -57 -12 -4 -11 3 -14 31 -14 24 0 34 -3 27 -10 -15 -15
-81 -15 -99 0 -15 13 -15 15 5 22 18 7 20 11 10 23 -7 8 -26 15 -41 15 -22 0
-32 -6 -39 -25 -12 -32 -51 -34 -65 -3 -10 24 -45 38 -45 19z m160 -76 c0 -8
-4 -15 -10 -15 -5 0 -10 7 -10 15 0 8 5 15 10 15 6 0 10 -7 10 -15z m-263 -81
c-3 -3 -12 -4 -19 -1 -8 3 -5 6 6 6 11 1 17 -2 13 -5z"/>
<path d="M4507 2024 c-14 -14 -7 -25 13 -22 12 2 21 8 21 13 0 12 -24 18 -34
9z"/>
<path d="M4305 1980 c3 -5 10 -10 16 -10 5 0 9 5 9 10 0 6 -7 10 -16 10 -8 0
-12 -4 -9 -10z"/>
<path d="M4370 1980 c0 -5 7 -10 16 -10 8 0 12 5 9 10 -3 6 -10 10 -16 10 -5
0 -9 -4 -9 -10z"/>
<path d="M4430 1970 c0 -5 12 -10 26 -10 14 0 23 4 19 10 -3 6 -15 10 -26 10
-10 0 -19 -4 -19 -10z"/>
<path d="M460 1570 c-10 -6 -8 -11 9 -21 11 -8 21 -21 21 -30 0 -14 19 -29 36
-29 13 0 1 31 -17 40 -11 7 -18 18 -15 25 6 16 -16 26 -34 15z"/>
<path d="M3055 1260 c3 -5 10 -10 16 -10 5 0 9 5 9 10 0 6 -7 10 -16 10 -8 0
-12 -4 -9 -10z"/>
<path d="M425 1186 c10 -14 19 -26 22 -26 7 0 -17 39 -28 46 -6 3 -3 -5 6 -20z"/>
<path d="M500 1076 c0 -2 8 -10 18 -17 15 -13 16 -12 3 4 -13 16 -21 21 -21
13z"/>
<path d="M2963 1035 c-34 -14 -73 -49 -73 -65 0 -5 7 -7 15 -3 9 3 36 -2 61
-12 44 -17 47 -17 64 1 10 11 20 34 22 53 3 31 1 34 -27 37 -16 1 -44 -3 -62
-11z"/>
<path d="M530 1036 c0 -2 8 -10 18 -17 15 -13 16 -12 3 4 -13 16 -21 21 -21
13z"/>
<path d="M3280 1030 c0 -5 9 -10 21 -10 11 0 17 5 14 10 -3 6 -13 10 -21 10
-8 0 -14 -4 -14 -10z"/>
<path d="M3536 1011 c-14 -23 86 -58 184 -65 69 -6 92 -5 84 3 -16 17 -105 48
-160 55 -27 4 -61 9 -76 12 -14 3 -29 1 -32 -5z"/>
<path d="M599 953 c46 -56 64 -73 55 -50 -3 8 2 17 10 20 9 4 16 13 16 21 0
13 -4 14 -25 4 -23 -10 -29 -8 -62 23 -36 33 -36 33 6 -18z"/>
<path d="M4340 979 c-17 -15 -33 -19 -53 -15 -25 5 -36 -1 -76 -42 -26 -26
-72 -60 -102 -76 -30 -16 -79 -45 -109 -66 -30 -20 -110 -65 -177 -100 -68
-34 -123 -66 -123 -71 0 -9 60 9 74 22 6 5 16 9 24 9 8 0 58 21 111 46 118 57
102 48 208 118 48 33 126 84 172 115 46 31 86 62 89 69 6 18 -10 14 -38 -9z"/>
<path d="M2422 918 c7 -19 38 -22 38 -4 0 10 -9 16 -21 16 -12 0 -19 -5 -17
-12z"/>
<path d="M3750 890 c0 -5 4 -10 9 -10 6 0 13 5 16 10 3 6 -1 10 -9 10 -9 0
-16 -4 -16 -10z"/>
<path d="M695 840 c21 -22 41 -40 44 -40 3 0 -13 18 -34 40 -21 22 -41 40 -44
40 -3 0 13 -18 34 -40z"/>
<path d="M3245 860 c-3 -5 -1 -10 4 -10 6 0 11 5 11 10 0 6 -2 10 -4 10 -3 0
-8 -4 -11 -10z"/>
<path d="M2322 848 c3 -7 16 -20 31 -28 30 -17 52 -4 41 23 -8 21 -78 25 -72
5z"/>
<path d="M3680 846 c14 -7 42 -16 63 -20 21 -4 47 -16 58 -27 24 -24 67 -24
99 1 19 14 22 22 14 30 -14 14 -125 29 -204 29 -52 0 -53 -1 -30 -13z"/>
<path d="M2052 668 c-18 -18 -15 -38 6 -31 9 3 22 11 27 18 6 6 17 14 25 18 8
3 1 6 -15 6 -17 1 -36 -4 -43 -11z"/>
<path d="M910 636 c0 -2 8 -10 18 -17 15 -13 16 -12 3 4 -13 16 -21 21 -21 13z"/>
<path d="M3455 500 c-3 -5 1 -10 9 -10 8 0 18 5 21 10 3 6 -1 10 -9 10 -8 0
-18 -4 -21 -10z"/>
<path d="M3325 456 c-44 -18 -111 -49 -150 -69 -38 -19 -99 -47 -135 -62 -35
-15 -94 -46 -130 -68 -64 -41 -97 -59 -175 -93 -22 -10 -65 -34 -95 -54 -58
-40 -152 -90 -185 -101 -11 -4 12 -7 50 -8 l71 -1 65 58 c64 57 146 102 469
256 214 102 343 177 303 176 -5 0 -44 -15 -88 -34z"/>
<path d="M4110 470 c-81 -44 -170 -79 -240 -95 -41 -10 -95 -28 -120 -41 -25
-13 -51 -24 -58 -24 -7 0 -38 -11 -68 -25 -30 -14 -58 -25 -63 -25 -32 0 -441
-202 -422 -208 18 -6 215 47 355 95 158 54 393 167 536 258 98 62 131 85 120
85 -3 0 -21 -9 -40 -20z"/>
<path d="M1540 320 c-14 -4 -34 -6 -45 -3 -11 2 -35 -2 -53 -10 l-33 -13 78
-37 c58 -27 80 -34 90 -25 18 14 171 2 218 -18 19 -7 67 -19 107 -24 55 -8 84
-18 116 -41 23 -17 71 -43 106 -59 36 -17 69 -36 73 -45 6 -10 43 -19 121 -28
62 -8 109 -11 105 -7 -99 83 -170 134 -218 156 -33 15 -72 36 -86 47 -31 22
-154 67 -186 67 -12 0 -46 9 -75 19 -58 21 -273 35 -318 21z"/>
<path d="M1370 316 c0 -2 7 -7 16 -10 8 -3 12 -2 9 4 -6 10 -25 14 -25 6z"/>
<path d="M2968 23 c7 -3 16 -2 19 1 4 3 -2 6 -13 5 -11 0 -14 -3 -6 -6z"/>
<path d="M2898 13 c7 -3 16 -2 19 1 4 3 -2 6 -13 5 -11 0 -14 -3 -6 -6z"/>
<path d="M2763 3 c9 -2 23 -2 30 0 6 3 -1 5 -18 5 -16 0 -22 -2 -12 -5z"/>
</g>
</svg>
